<?xml version="1.0" encoding="UTF-8" standalone="no"?>
<!-- Created with Inkscape (http://www.inkscape.org/) -->

<svg
   width="1200.0001"
   height="514.41815"
   viewBox="0 0 317.50002 136.10647"
   version="1.1"
   id="svg1"
   inkscape:version="1.4.2 (ebf0e940d0, 2025-05-08)"
   sodipodi:docname="thumbnail.svg"
   xml:space="preserve"
   inkscape:export-filename="thumbnail.jpg"
   inkscape:export-xdpi="300"
   inkscape:export-ydpi="300"
   xmlns:inkscape="http://www.inkscape.org/namespaces/inkscape"
   xmlns:sodipodi="http://sodipodi.sourceforge.net/DTD/sodipodi-0.dtd"
   xmlns="http://www.w3.org/2000/svg"
   xmlns:svg="http://www.w3.org/2000/svg"><sodipodi:namedview
     id="namedview1"
     pagecolor="#ffffff"
     bordercolor="#000000"
     borderopacity="0.25"
     inkscape:showpageshadow="2"
     inkscape:pageopacity="0.0"
     inkscape:pagecheckerboard="0"
     inkscape:deskcolor="#d1d1d1"
     inkscape:document-units="px"
     inkscape:zoom="0.83249992"
     inkscape:cx="415.01505"
     inkscape:cy="312.91294"
     inkscape:window-width="2560"
     inkscape:window-height="1371"
     inkscape:window-x="0"
     inkscape:window-y="0"
     inkscape:window-maximized="1"
     inkscape:current-layer="layer1"
     showguides="true" /><defs
     id="defs1" /><g
     inkscape:label="Layer 1"
     inkscape:groupmode="layer"
     id="layer1"
     transform="translate(0,4e-5)"><rect
       style="opacity:1;fill:#ffffff;fill-opacity:1;stroke:none;stroke-width:0.230977;stroke-linecap:round;stroke-dasharray:none;stroke-opacity:1"
       id="rect60"
       width="317.5"
       height="136.10634"
       x="6.2565656e-12"
       y="4.0532228e-05" /><path
       style="baseline-shift:baseline;display:inline;overflow:visible;opacity:0.77214984;vector-effect:none;fill:#000000;fill-opacity:1;stroke-width:1.20976;stroke-linecap:round;enable-background:accumulate;stop-color:#000000;stop-opacity:1"
       d="m 173.74701,129.49597 a 0.48012258,0.48012258 0 0 0 -0.33848,0.14107 0.48012258,0.48012258 0 0 0 0.002,0.67851 c 2.00594,1.99162 4.05812,3.92205 6.15363,5.79087 h 1.44642 c -2.36404,-2.07923 -4.67309,-4.23701 -6.92412,-6.47196 a 0.48012258,0.48012258 0 0 0 -0.339,-0.13849 z"
       id="path61" /><path
       style="baseline-shift:baseline;display:inline;overflow:visible;opacity:0.5;vector-effect:none;fill:#000000;fill-opacity:1;stroke-width:1.20976;stroke-linecap:round;enable-background:accumulate;stop-color:#000000;stop-opacity:1"
       d="m 12.378572,125.74271 -0.297139,0.11834 c 1.357066,3.44345 2.778167,6.85922 4.263306,10.24537 h 0.349849 c -1.50402,-3.42479 -2.943149,-6.87965 -4.316016,-10.3632 z"
       id="path62" /><path
       style="baseline-shift:baseline;display:inline;overflow:visible;opacity:0.59194295;vector-effect:none;fill:#000000;fill-opacity:1;stroke-width:1.20976;stroke-linecap:round;enable-background:accumulate;stop-color:#000000;stop-opacity:1"
       d="m 222.8882,118.55245 a 0.80020431,0.80020431 0 0 0 -0.70125,0.38292 0.80020431,0.80020431 0 0 0 0.26665,1.09916 c 13.87471,8.46632 28.85997,13.76876 44.07638,16.07189 h 35.56785 c 5.20036,-0.78465 10.34652,-1.91257 15.40216,-3.37654 v -1.65985 c -30.76902,9.0424 -64.98411,5.43526 -94.21491,-12.40131 a 0.80020431,0.80020431 0 0 0 -0.39688,-0.11627 z"
       id="path63" /><path
       style="baseline-shift:baseline;display:inline;overflow:visible;opacity:0.5;vector-effect:none;fill:#000000;fill-opacity:1;stroke-width:1.20976;stroke-linecap:round;enable-background:accumulate;stop-color:#000000;stop-opacity:1"
       d="m 0,116.91431 v 0.97616 c 2.1538401,6.16592 4.5026496,12.24027 7.0388467,18.21595 H 7.3866291 C 4.7135845,129.81594 2.2483759,123.41558 0,116.91431 Z"
       id="path64" /><path
       style="baseline-shift:baseline;display:inline;overflow:visible;opacity:1;vector-effect:none;fill:#000000;fill-opacity:1;stroke-width:1.20976;stroke-linecap:round;enable-background:accumulate;stop-color:#000000;stop-opacity:1"
       d="m 0,96.07734 v 3.56877 c 3.5311765,12.38235 7.8796781,24.5633 13.034346,36.46031 h 1.044381 C 8.408784,123.07023 3.7112018,109.69088 0,96.07734 Z"
       id="path65" /><path
       style="baseline-shift:baseline;display:inline;overflow:visible;opacity:0.5;vector-effect:none;fill:#000000;fill-opacity:1;stroke-width:1.20976;stroke-linecap:round;enable-background:accumulate;stop-color:#000000;stop-opacity:1"
       d="m 17.441829,95.95279 -0.306958,0.0894 c 3.989565,13.75826 9.024599,27.15006 15.044043,40.06422 h 0.352433 C 26.490947,123.16528 21.440748,109.7433 17.441829,95.95278 Z"
       id="path66" /><path
       style="baseline-shift:baseline;display:inline;overflow:visible;opacity:0.5;vector-effect:none;fill:#000000;fill-opacity:1;stroke-width:1.20976;stroke-linecap:round;enable-background:accumulate;stop-color:#000000;stop-opacity:1"
       d="m 210.50136,81.31803 a 0.12003065,0.12003065 0 0 0 -0.0718,0.0295 0.12003065,0.12003065 0 0 0 -0.0124,0.16846 c 26.29034,30.88077 68.9874,42.16772 107.08286,28.34969 v -0.25735 c -38.02318,13.8311 -80.65531,2.57926 -106.90044,-28.2484 a 0.12003065,0.12003065 0 0 0 -0.0982,-0.0419 z"
       id="path67" /><path
       style="baseline-shift:baseline;display:inline;overflow:visible;opacity:0.5;vector-effect:none;fill:#000000;fill-opacity:1;stroke-width:1.20976;stroke-linecap:round;enable-background:accumulate;stop-color:#000000;stop-opacity:1"
       d="m 0,73.25031 v 1.67483 c 4.2041095,21.3265 10.747623,41.81297 19.35179,61.18128 h 0.348299 C 10.860455,116.23373 4.193304,95.18124 0,73.25031 Z"
       id="path68" /><path
       style="baseline-shift:baseline;display:inline;overflow:visible;opacity:0.5;vector-effect:none;fill:#000000;fill-opacity:1;stroke-width:1.20976;stroke-linecap:round;enable-background:accumulate;stop-color:#000000;stop-opacity:1"
       d="m 164.44422,64.18988 -0.22427,0.0847 c 12.69287,33.35409 37.80414,58.41051 68.10953,71.83179 h 0.59015 C 202.45047,122.76419 177.18269,97.66373 164.44422,64.18983 Z"
       id="path69" /><path
       style="baseline-shift:baseline;display:inline;overflow:visible;opacity:0.21234418;vector-effect:none;fill:#000000;fill-opacity:1;stroke-width:1.20976;stroke-linecap:round;enable-background:accumulate;stop-color:#000000;stop-opacity:1"
       d="m 245.73383,33.96226 a 0.16004065,0.16004065 0 0 0 -0.061,0.0119 0.16004065,0.16004065 0 0 0 -0.0894,0.20774 c 7.10121,17.6225 25.19007,28.24468 44.03968,25.86302 11.34029,-1.43287 21.24317,-7.35617 27.87685,-15.94941 v -0.52555 c -6.58249,8.70656 -16.5173,14.71838 -27.91664,16.1587 -18.70691,2.36366 -36.65481,-8.17805 -43.70224,-25.66717 a 0.16004065,0.16004065 0 0 0 -0.14728,-0.0992 z"
       id="path70" /><path
       style="baseline-shift:baseline;display:inline;overflow:visible;opacity:0.25894867;vector-effect:none;fill:#000000;fill-opacity:1;stroke-width:1.20976;stroke-linecap:round;enable-background:accumulate;stop-color:#000000;stop-opacity:1"
       d="m 89.425548,32.54426 -0.318844,0.0212 c 2.730151,38.02911 16.434266,73.8573 38.721146,103.54097 h 0.39946 C 105.89196,106.43429 92.157115,70.59312 89.425548,32.54426 Z"
       id="path71" /><path
       style="baseline-shift:baseline;display:inline;overflow:visible;opacity:0.21636946;vector-effect:none;fill:#000000;fill-opacity:1;stroke-width:1.20976;stroke-linecap:round;enable-background:accumulate;stop-color:#000000;stop-opacity:1"
       d="m 61.619494,27.34406 -0.318844,0.0124 c 1.538383,38.96423 13.216936,76.34869 33.28479,108.74995 h 0.376204 C 74.858364,103.71288 63.158337,66.32009 61.619494,27.34406 Z"
       id="path72" /><path
       style="baseline-shift:baseline;display:inline;overflow:visible;opacity:0.5;vector-effect:none;fill:#000000;fill-opacity:1;stroke-width:1.20976;stroke-linecap:round;enable-background:accumulate;stop-color:#000000;stop-opacity:1"
       d="m 291.37446,18.42833 v 5.2e-4 a 0.12003065,0.12003065 0 0 0 -0.11834,0.11782 c 0,3.28787 -2.32618,6.11645 -5.55263,6.74894 a 0.12003065,0.12003065 0 0 0 -0.0966,0.13953 0.12003065,0.12003065 0 0 0 0.1416,0.094 c 3.33764,-0.65428 5.74642,-3.58135 5.74641,-6.98252 a 0.12003065,0.12003065 0 0 0 -0.1204,-0.11834 z"
       id="path73" /><path
       style="baseline-shift:baseline;display:inline;overflow:visible;opacity:0.8258202;vector-effect:none;fill:#000000;fill-opacity:1;stroke-width:1.20976;stroke-linecap:round;enable-background:accumulate;stop-color:#000000;stop-opacity:1"
       d="m 313.5824,18.38854 a 0.16004065,0.16004065 0 0 0 -0.15813,0.15813 c 0,14.22282 -10.29789,26.35169 -24.33236,28.65871 -14.03449,2.30701 -27.67353,-5.88613 -32.22646,-19.36057 a 0.16004065,0.16004065 0 0 0 -0.20308,-0.0997 0.16004065,0.16004065 0 0 0 -0.0992,0.20102 c 4.6024,13.6208 18.39347,21.90814 32.58044,19.57607 14.18696,-2.33208 24.59953,-14.59814 24.59953,-28.97549 a 0.16004065,0.16004065 0 0 0 -0.16072,-0.15813 z"
       id="path74" /><path
       style="baseline-shift:baseline;display:inline;overflow:visible;opacity:0.5;vector-effect:none;fill:#000000;fill-opacity:1;stroke-width:1.20976;stroke-linecap:round;enable-background:accumulate;stop-color:#000000;stop-opacity:1"
       d="m 310.55313,18.38854 a 0.16004065,0.16004065 0 0 0 -0.16071,0.15813 c 0,11.54421 -7.60602,21.70665 -18.68258,24.9592 -11.07654,3.25253 -22.97009,-1.18144 -29.21165,-10.89288 a 0.16004065,0.16004065 0 0 0 -0.2217,-0.0496 0.16004065,0.16004065 0 0 0 -0.0475,0.22221 c 6.3176,9.82972 18.3588,14.31939 29.57029,11.02724 11.21148,-3.29216 18.91254,-13.58132 18.91254,-25.26616 a 0.16004065,0.16004065 0 0 0 -0.15865,-0.15813 z"
       id="path75" /><path
       style="baseline-shift:baseline;display:inline;overflow:visible;opacity:0.2371018;vector-effect:none;fill:#000000;fill-opacity:1;stroke-width:1.20976;stroke-linecap:round;enable-background:accumulate;stop-color:#000000;stop-opacity:1"
       d="m 236.28273,18.33945 a 0.08002044,0.08002044 0 0 0 -0.0801,0.0801 c -0.0457,17.22673 9.11198,33.16748 24.01559,41.80727 14.9036,8.63977 33.28663,8.66425 48.21308,0.0641 3.31883,-1.91222 6.35443,-4.18601 9.06869,-6.75566 v -0.22169 c -2.73329,2.60385 -5.79609,4.90608 -9.14879,6.83782 -14.87711,8.57176 -33.19804,8.54715 -48.05236,-0.0641 C 245.44452,51.47608 236.3178,35.5893 236.36335,18.41955 a 0.08002044,0.08002044 0 0 0 -0.0796,-0.0801 z"
       id="path76" /><path
       style="baseline-shift:baseline;display:inline;overflow:visible;opacity:0.5;vector-effect:none;fill:#000000;fill-opacity:1;stroke-width:1.20976;stroke-linecap:round;enable-background:accumulate;stop-color:#000000;stop-opacity:1"
       d="m 304.74367,18.22782 a 0.32008172,0.32008172 0 0 0 -0.31988,0.31885 c 0,7.42913 -4.10704,14.24918 -10.6748,17.7214 -6.56779,3.47224 -14.51632,3.02846 -20.65559,-1.15497 a 0.32008172,0.32008172 0 0 0 -0.44441,0.0822 0.32008172,0.32008172 0 0 0 0.0832,0.44442 c 6.33434,4.31638 14.53852,4.77577 21.31497,1.19321 6.77645,-3.58254 11.01742,-10.62105 11.01742,-18.28622 a 0.32008172,0.32008172 0 0 0 -0.32091,-0.31885 z"
       id="path77" /><path
       style="baseline-shift:baseline;display:inline;overflow:visible;opacity:1;vector-effect:none;fill:#000000;fill-opacity:1;stroke-width:1.20976;stroke-linecap:round;enable-background:accumulate;stop-color:#000000;stop-opacity:1"
       d="m 294.34224,18.06711 a 0.48012258,0.48012258 0 0 0 -0.47956,0.47956 c 0,4.56676 -3.24975,8.48161 -7.73855,9.32191 -4.4888,0.84029 -8.93145,-1.63357 -10.58333,-5.89111 a 0.48012258,0.48012258 0 0 0 -0.62115,-0.27337 0.48012258,0.48012258 0 0 0 -0.27389,0.62115 c 1.81684,4.6827 6.71855,7.41011 11.65562,6.48591 4.93704,-0.92421 8.5199,-5.24168 8.5199,-10.26449 a 0.48012258,0.48012258 0 0 0 -0.47904,-0.47956 z"
       id="path78" /><path
       style="baseline-shift:baseline;display:inline;overflow:visible;opacity:0.5;vector-effect:none;fill:#000000;fill-opacity:1;stroke-width:1.20976;stroke-linecap:round;enable-background:accumulate;stop-color:#000000;stop-opacity:1"
       d="m 302.93913,13.91491 -5.2e-4,5.2e-4 a 0.08002044,0.08002044 0 0 0 -0.015,0.002 0.08002044,0.08002044 0 0 0 -0.0563,0.0972 c 1.36291,5.55708 0.15289,11.43134 -3.29386,15.9985 -3.44675,4.56716 -8.76657,7.34065 -14.48439,7.55406 a 0.08002044,0.08002044 0 0 0 -0.0754,0.0827 0.08002044,0.08002044 0 0 0 0.0832,0.078 c 5.76578,-0.21519 11.12861,-3.01268 14.60427,-7.61814 3.47566,-4.60546 4.69406,-10.53171 3.3197,-16.13545 a 0.08002044,0.08002044 0 0 0 -0.0744,-0.0594 0.08002044,0.08002044 0 0 0 -0.007,0 z"
       id="path79" /><path
       style="baseline-shift:baseline;display:inline;overflow:visible;opacity:0.5;vector-effect:none;fill:#000000;fill-opacity:1;stroke-width:1.20976;stroke-linecap:round;enable-background:accumulate;stop-color:#000000;stop-opacity:1"
       d="m 284.30202,13.6772 v 5.1e-4 c -0.2299,0.007 -0.45878,0.0307 -0.68471,0.0703 -0.90373,0.15857 -1.76288,0.57113 -2.46445,1.21905 -1.40312,1.29583 -1.91946,3.29501 -1.32085,5.10873 a 0.32008172,0.32008172 0 0 0 0.40411,0.20309 0.32008172,0.32008172 0 0 0 0.20309,-0.40359 c -0.52044,-1.57692 -0.0717,-3.31082 1.14825,-4.43746 1.21993,-1.12663 2.98487,-1.43619 4.51549,-0.7922 a 0.32008172,0.32008172 0 0 0 0.41857,-0.17156 0.32008172,0.32008172 0 0 0 -0.17053,-0.41858 c -0.66016,-0.27777 -1.35933,-0.40098 -2.04897,-0.37827 z"
       id="path80" /><path
       style="baseline-shift:baseline;display:inline;overflow:visible;opacity:0.5;vector-effect:none;fill:#000000;fill-opacity:1;stroke-width:1.20976;stroke-linecap:round;enable-background:accumulate;stop-color:#000000;stop-opacity:1"
       d="m 275.12274,5.76347 a 0.08002044,0.08002044 0 0 0 -0.0103,5.2e-4 h -5.1e-4 a 0.08002044,0.08002044 0 0 0 -0.0383,0.0145 c -3.75852,2.73977 -6.11991,6.99786 -6.45335,11.63701 -0.33347,4.63915 1.39365,9.18833 4.72168,12.43748 a 0.08002044,0.08002044 0 0 0 0.11265,0 0.08002044,0.08002044 0 0 0 0,-0.11317 c -3.29441,-3.21631 -5.00631,-7.72016 -4.6762,-12.31242 0.33007,-4.59227 2.66875,-8.80659 6.38928,-11.51868 a 0.08002044,0.08002044 0 0 0 0.017,-0.11162 0.08002044,0.08002044 0 0 0 -0.062,-0.0336 z"
       id="path81" /><path
       style="baseline-shift:baseline;display:inline;overflow:visible;opacity:0.67240521;vector-effect:none;fill:#000000;fill-opacity:1;stroke-width:1.20976;stroke-linecap:round;enable-background:accumulate;stop-color:#000000;stop-opacity:1"
       d="m 284.51493,5.34179 a 0.12003065,0.12003065 0 0 0 -0.12041,0.11782 0.12003065,0.12003065 0 0 0 0.11834,0.12248 c 4.61283,0.0473 8.85313,2.54124 11.13576,6.54998 a 0.12003065,0.12003065 0 0 0 0.16329,0.045 0.12003065,0.12003065 0 0 0 0.045,-0.1633 C 293.53222,7.93115 289.21333,5.38984 284.51549,5.34183 Z"
       id="path82" /><path
       style="baseline-shift:baseline;display:inline;overflow:visible;opacity:0.67240521;vector-effect:none;fill:#000000;fill-opacity:1;stroke-width:1.20976;stroke-linecap:round;enable-background:accumulate;stop-color:#000000;stop-opacity:1"
       d="m 283.51292,1.05058 c -5.55619,0.28079 -10.88182,3.1968 -14.0255,8.27185 a 0.28007152,0.28007152 0 0 0 0.0904,0.3855 0.28007152,0.28007152 0 0 0 0.38499,-0.0894 c 4.87249,-7.86599 15.14112,-10.37644 23.09161,-5.64307 a 0.28007152,0.28007152 0 0 0 0.38499,-0.0966 0.28007152,0.28007152 0 0 0 -0.0971,-0.38292 c -3.07769,-1.83231 -6.49522,-2.61356 -9.82886,-2.44533 z"
       id="path83" /><path
       style="baseline-shift:baseline;display:inline;overflow:visible;opacity:0.86955722;vector-effect:none;fill:#000000;fill-opacity:1;stroke-width:1.20976;stroke-linecap:round;enable-background:accumulate;stop-color:#000000;stop-opacity:1"
       d="m 298.78796,0 c 3.88063,3.01481 6.80762,7.23793 8.20002,12.18375 2.626,9.32764 -0.74599,19.30823 -8.48993,25.13335 a 0.16004065,0.16004065 0 0 0 -0.0305,0.22479 0.16004065,0.16004065 0 0 0 0.22427,0.0305 C 306.54048,31.66848 309.95904,21.5502 307.2975,12.09643 305.92482,7.22063 303.07995,3.03734 299.30522,1e-5 Z"
       id="path84" /><path
       style="baseline-shift:baseline;display:inline;overflow:visible;opacity:0.5;vector-effect:none;fill:#000000;fill-opacity:1;stroke-width:1.20976;stroke-linecap:round;enable-background:accumulate;stop-color:#000000;stop-opacity:1"
       d="m 256.43706,0 c -0.58435,0.88157 -1.13153,1.79771 -1.63866,2.74712 a 0.80020431,0.80020431 0 0 0 0.32814,1.0821 0.80020431,0.80020431 0 0 0 1.08211,-0.32866 C 256.86362,2.27439 257.58866,1.10657 258.37647,0 Z"
       id="path85" /><path
       style="baseline-shift:baseline;display:inline;overflow:visible;opacity:0.76876298;vector-effect:none;fill:#000000;fill-opacity:1;stroke-width:1.20976;stroke-linecap:round;enable-background:accumulate;stop-color:#000000;stop-opacity:1"
       d="m 251.53245,0 c -5.39428,9.56311 -6.51235,21.30048 -2.35593,32.09778 a 0.16004065,0.16004065 0 0 0 0.20825,0.092 0.16004065,0.16004065 0 0 0 0.092,-0.20515 C 245.33207,21.21773 246.47471,9.51029 251.90039,2e-5 Z"
       id="path86" /><path
       style="baseline-shift:baseline;display:inline;overflow:visible;opacity:0.70463989;vector-effect:none;fill:#000000;fill-opacity:1;stroke-width:1.20976;stroke-linecap:round;enable-background:accumulate;stop-color:#000000;stop-opacity:1"
       d="m 221.83814,0 c -7.2054,24.28854 0.30677,50.59073 19.31975,67.40983 19.21934,17.00168 46.62082,21.15571 70.01639,10.61589 2.18309,-0.98349 4.29347,-2.0778 6.32571,-3.27473 v -0.74363 c -2.11172,1.26037 -4.30972,2.40869 -6.58771,3.43494 C 287.74484,87.87936 260.61256,83.76617 241.5806,66.93028 222.70565,50.23328 215.27765,24.10202 222.50424,0 Z"
       id="path87" /><path
       style="baseline-shift:baseline;display:inline;overflow:visible;opacity:0.24239309;vector-effect:none;fill:#000000;fill-opacity:1;stroke-width:1.20976;stroke-linecap:round;enable-background:accumulate;stop-color:#000000;stop-opacity:1"
       d="m 212.96736,0 c -4.43679,17.09746 -2.72052,35.67991 5.76244,52.21903 15.03148,29.3067 47.67111,45.10262 79.98064,38.70565 a 0.28007152,0.28007152 0 0 0 0.22015,-0.32815 0.28007152,0.28007152 0 0 0 -0.32815,-0.22014 C 266.5357,96.72527 234.14699,81.05072 219.22848,51.96427 210.78599,35.50404 209.09636,17.00626 213.54562,0 Z"
       id="path88" /><path
       style="baseline-shift:baseline;display:inline;overflow:visible;opacity:0.68662353;vector-effect:none;fill:#000000;fill-opacity:1;stroke-width:1.20976;stroke-linecap:round;enable-background:accumulate;stop-color:#000000;stop-opacity:1"
       d="m 202.36697,0 c -3.67501,16.2112 -2.58493,33.6266 4.0597,50.06257 a 0.48012258,0.48012258 0 0 0 0.62374,0.26665 0.48012258,0.48012258 0 0 0 0.2651,-0.62631 C 200.7168,33.3806 199.65751,16.08474 203.34727,0 Z"
       id="path89" /><path
       style="baseline-shift:baseline;display:inline;overflow:visible;opacity:0.21291768;vector-effect:none;fill:#000000;fill-opacity:1;stroke-width:1.20976;stroke-linecap:round;enable-background:accumulate;stop-color:#000000;stop-opacity:1"
       d="m 197.00658,0 c -4.2216,19.90201 -1.6135,41.07135 8.16746,59.8351 a 0.16004065,0.16004065 0 0 0 0.21755,0.0677 0.16004065,0.16004065 0 0 0 0.0667,-0.21652 C 195.70117,40.96832 193.10697,19.84943 197.3332,0 Z"
       id="path90" /><path
       style="baseline-shift:baseline;display:inline;overflow:visible;opacity:0.22585916;vector-effect:none;fill:#000000;fill-opacity:1;stroke-width:1.20976;stroke-linecap:round;enable-background:accumulate;stop-color:#000000;stop-opacity:1"
       d="m 174.69786,0 c -1.01257,6.03147 -1.53944,12.22759 -1.53944,18.54667 0,61.42209 49.80005,111.22215 111.22215,111.22215 11.53397,0 22.65803,-1.75595 33.11942,-5.0152 v -0.58498 c -10.45696,3.27555 -21.58188,5.04104 -33.11942,5.04104 -61.11937,0 -110.65991,-49.54364 -110.65991,-110.66301 0,-6.31999 0.52971,-12.51624 1.54719,-18.54667 z"
       id="path91" /><path
       style="baseline-shift:baseline;display:inline;overflow:visible;opacity:0.77697585;vector-effect:none;fill:#000000;fill-opacity:1;stroke-width:1.20976;stroke-linecap:round;enable-background:accumulate;stop-color:#000000;stop-opacity:1"
       d="m 147.73155,0 c -0.8458,6.25361 -1.26944,12.6221 -1.24489,19.07118 a 0.16004065,0.16004065 0 0 0 0.16072,0.16072 0.16004065,0.16004065 0 0 0 0.16071,-0.16072 C 146.78349,12.62183 147.20829,6.25329 148.05608,0 Z"
       id="path92" /><path
       style="baseline-shift:baseline;display:inline;overflow:visible;opacity:0.5;vector-effect:none;fill:#000000;fill-opacity:1;stroke-width:1.20976;stroke-linecap:round;enable-background:accumulate;stop-color:#000000;stop-opacity:1"
       d="m 136.85056,0 c -4.5642,36.35899 4.38021,73.87134 26.43094,104.82254 a 0.2400613,0.2400613 0 0 0 0.3359,0.0568 0.2400613,0.2400613 0 0 0 0.0568,-0.33538 C 141.68216,73.67506 132.76823,36.26009 137.33473,-4e-5 Z"
       id="path93" /><path
       style="baseline-shift:baseline;display:inline;overflow:visible;opacity:0.25535622;vector-effect:none;fill:#000000;fill-opacity:1;stroke-width:1.20976;stroke-linecap:round;enable-background:accumulate;stop-color:#000000;stop-opacity:1"
       d="m 118.41189,0 c -5.48876,49.31561 11.21448,99.68288 47.36817,136.10642 h 0.90537 C 130.33849,99.76916 113.54004,49.35342 119.05681,0 Z"
       id="path94" /><path
       style="baseline-shift:baseline;display:inline;overflow:visible;opacity:0.30160362;vector-effect:none;fill:#000000;fill-opacity:1;stroke-width:1.20976;stroke-linecap:round;enable-background:accumulate;stop-color:#000000;stop-opacity:1"
       d="m 107.90814,0 c -0.0141,0.1355 -0.0281,0.2711 -0.0419,0.40669 -0.60575,5.96456 -0.9157,12.01561 -0.9157,18.13998 0,45.22593 17.00613,86.34131 44.92645,117.55975 h 0.15141 C 124.19394,104.85969 107.272,63.70034 107.272,18.54667 c 0,-6.11356 0.309,-12.15446 0.91364,-18.10846 0.0148,-0.1461 0.0298,-0.29221 0.045,-0.43821 z"
       id="path95" /><path
       style="baseline-shift:baseline;display:inline;overflow:visible;opacity:0.64387119;vector-effect:none;fill:#000000;fill-opacity:1;stroke-width:1.20976;stroke-linecap:round;enable-background:accumulate;stop-color:#000000;stop-opacity:1"
       d="m 82.384117,0 c -0.553791,6.10808 -0.836641,12.29438 -0.836641,18.54667 0,43.82053 13.897232,84.39621 37.524324,117.55975 h 0.38964 C 95.792406,102.96138 81.86632,62.38037 81.86632,18.54667 81.86632,12.29424 82.149444,6.10793 82.703994,0 Z"
       id="path96" /><path
       style="baseline-shift:baseline;display:inline;overflow:visible;opacity:0.19687067;vector-effect:none;fill:#000000;fill-opacity:1;stroke-width:1.20976;stroke-linecap:round;enable-background:accumulate;stop-color:#000000;stop-opacity:1"
       d="m 78.46291,0 c -3.49536,38.8164 4.032235,78.1346 22.14335,113.27215 l 1.42214,-0.73484 C 84.034988,77.62819 76.570618,38.562 80.07108,0 Z"
       id="path97" /><path
       style="baseline-shift:baseline;display:inline;overflow:visible;opacity:0.5;vector-effect:none;fill:#000000;fill-opacity:1;stroke-width:1.20976;stroke-linecap:round;enable-background:accumulate;stop-color:#000000;stop-opacity:1"
       d="m 72.466377,0 c -0.527868,6.11196 -0.797368,12.29789 -0.797368,18.54667 0,43.46285 13.035985,83.88183 35.411271,117.55975 h 0.38293 C 85.051144,102.44414 71.990437,62.02075 71.990437,18.54667 71.990437,12.29777 72.260124,6.11183 72.788838,0 Z"
       id="path98" /><path
       style="baseline-shift:baseline;display:inline;overflow:visible;opacity:0.70805921;vector-effect:none;fill:#000000;fill-opacity:1;stroke-width:1.20976;stroke-linecap:round;enable-background:accumulate;stop-color:#000000;stop-opacity:1"
       d="m 54.526903,0 c -0.486875,6.11806 -0.734838,12.30343 -0.734838,18.54667 0,42.93823 11.736778,83.13606 32.177363,117.55975 h 0.371554 C 65.869932,101.6949 54.112975,61.49388 54.112975,18.54667 54.112975,12.30333 54.361723,6.11794 54.849364,0 Z"
       id="path99" /><path
       style="baseline-shift:baseline;display:inline;overflow:visible;opacity:0.31398243;vector-effect:none;fill:#000000;fill-opacity:1;stroke-width:1.20976;stroke-linecap:round;enable-background:accumulate;stop-color:#000000;stop-opacity:1"
       d="m 46.167724,0 c -3.716935,47.65118 6.994678,95.03239 30.200223,136.10642 h 0.275952 C 53.411961,95.04114 42.687028,47.65552 46.408019,0 Z"
       id="path100" /><path
       style="baseline-shift:baseline;display:inline;overflow:visible;opacity:0.44099507;vector-effect:none;fill:#000000;fill-opacity:1;stroke-width:1.20976;stroke-linecap:round;enable-background:accumulate;stop-color:#000000;stop-opacity:1"
       d="m 43.673819,0 c -0.465111,6.12125 -0.701766,12.30635 -0.701766,18.54667 0,42.67862 11.075844,82.77121 30.509766,117.55975 h 0.365869 C 54.386615,101.32838 43.293481,61.23311 43.293481,18.54667 43.293481,12.30626 43.53054,6.12115 43.99628,0 Z"
       id="path101" /><path
       style="baseline-shift:baseline;display:inline;overflow:visible;opacity:0.7707107;vector-effect:none;fill:#000000;fill-opacity:1;stroke-width:1.20976;stroke-linecap:round;enable-background:accumulate;stop-color:#000000;stop-opacity:1"
       d="m 32.824869,0 c -0.445101,6.12416 -0.671793,12.30901 -0.671793,18.54667 0,42.4524 10.48838,82.45579 29.015282,117.55975 h 0.361735 C 42.978776,101.01142 32.474503,61.00571 32.474503,18.54667 32.474503,12.30893 32.70113,6.12406 33.146813,0 Z"
       id="path102" /><path
       style="baseline-shift:baseline;display:inline;overflow:visible;opacity:0.82724853;vector-effect:none;fill:#000000;fill-opacity:1;stroke-width:1.20976;stroke-linecap:round;enable-background:accumulate;stop-color:#000000;stop-opacity:1"
       d="m 23.842989,0 c -3.369311,47.26233 6.220754,94.28801 27.29239,136.10642 h 0.538985 C 30.560503,94.30084 20.949693,47.26856 24.325647,0 Z"
       id="path103" /><path
       style="baseline-shift:baseline;display:inline;overflow:visible;opacity:0.07559297;vector-effect:none;fill:#000000;fill-opacity:1;stroke-width:1.20976;stroke-linecap:round;enable-background:accumulate;stop-color:#000000;stop-opacity:1"
       d="m 20.092313,0 c -0.423719,6.12723 -0.639237,12.31184 -0.639237,18.54667 0,42.2211 9.876989,82.13605 27.446386,117.55975 h 0.355017 C 29.662956,100.69059 19.771919,60.77374 19.771919,18.54667 19.771919,12.31176 19.987431,6.12714 20.411674,0 Z"
       id="path104" /><path
       style="baseline-shift:baseline;display:inline;overflow:visible;opacity:0.28899758;vector-effect:none;fill:#000000;fill-opacity:1;stroke-width:1.20976;stroke-linecap:round;enable-background:accumulate;stop-color:#000000;stop-opacity:1"
       d="m 16.3189,0 c -0.417824,6.12808 -0.629935,12.31262 -0.629935,18.54667 0,42.15883 9.709879,82.05036 27.015404,117.55975 h 0.353984 C 25.731466,100.60441 16.007808,60.71104 16.007808,18.54667 16.007808,12.31255 16.22051,6.128 16.638777,0 Z"
       id="path105" /><path
       style="baseline-shift:baseline;display:inline;overflow:visible;opacity:0.63048606;vector-effect:none;fill:#000000;fill-opacity:1;stroke-width:1.20976;stroke-linecap:round;enable-background:accumulate;stop-color:#000000;stop-opacity:1"
       d="m 3.1166056,0 c -0.398243,6.13085 -0.6004802,12.31519 -0.6004802,18.54667 0,41.95898 9.1691526,81.77712 25.6123896,117.55975 h 0.351917 C 12.018183,100.33032 2.8375529,60.51066 2.8375529,18.54667 2.8375529,12.31512 3.0399133,6.13078 3.4385498,0 Z"
       id="path106" /><rect
       style="fill:#ffffff;fill-opacity:1;stroke-width:0.246874"
       id="rect106"
       width="173.90311"
       height="38.128567"
       x="71.669006"
       y="48.988918"
       ry="5.8105893" /><text
       xml:space="preserve"
       style="font-weight:bold;font-size:30.7909px;font-family:Inter;-inkscape-font-specification:'Inter Bold';text-align:start;writing-mode:lr-tb;direction:ltr;text-anchor:start;fill:#000000;fill-opacity:1;stroke-width:2.56591"
       x="72.470558"
       y="76.292168"
       id="text106"><tspan
         sodipodi:role="line"
         id="tspan106"
         style="font-style:normal;font-variant:normal;font-weight:bold;font-stretch:normal;font-family:Inter;-inkscape-font-specification:'Inter Bold';fill:#000000;fill-opacity:1;stroke-width:2.56591"
         x="72.470558"
         y="76.292168">PyStarTrails</tspan></text></g></svg>
